<?xml version="1.0"?>
<svg xmlns="http://www.w3.org/2000/svg" xmlns:xlink="http://www.w3.org/1999/xlink" xmlns:svgjs="http://svgjs.com/svgjs" version="1.1" width="512" height="512" x="0" y="0" viewBox="0 0 512 512" style="enable-background:new 0 0 512 512" xml:space="preserve" class=""><g><g xmlns="http://www.w3.org/2000/svg"><path d="m179.833 69.698c0 13.945 11.346 25.291 25.291 25.291s25.291-11.346 25.291-25.291-11.346-25.291-25.291-25.291-25.291 11.345-25.291 25.291zm35.582 0c0 5.674-4.616 10.291-10.291 10.291s-10.291-4.617-10.291-10.291 4.616-10.291 10.291-10.291 10.291 4.616 10.291 10.291z" fill="#ffffff" data-original="#000000" style="" class=""/><path d="m108.418 69.698c0 13.945 11.346 25.291 25.292 25.291 13.945 0 25.291-11.346 25.291-25.291s-11.346-25.291-25.291-25.291c-13.946 0-25.292 11.345-25.292 25.291zm35.583 0c0 5.674-4.616 10.291-10.291 10.291s-10.292-4.617-10.292-10.291 4.617-10.291 10.292-10.291 10.291 4.616 10.291 10.291z" fill="#ffffff" data-original="#000000" style="" class=""/><path d="m37.003 69.698c0 13.945 11.346 25.291 25.292 25.291 13.945 0 25.291-11.346 25.291-25.291s-11.346-25.291-25.291-25.291c-13.946 0-25.292 11.345-25.292 25.291zm35.583 0c0 5.674-4.616 10.291-10.291 10.291s-10.292-4.617-10.292-10.291 4.617-10.291 10.292-10.291 10.291 4.616 10.291 10.291z" fill="#ffffff" data-original="#000000" style="" class=""/><path d="m489.5 8.606h-467c-12.406 0-22.5 10.093-22.5 22.5v291.271c0 4.142 3.357 7.5 7.5 7.5s7.5-3.358 7.5-7.5v-191.587h280.597c4.143 0 7.5-3.358 7.5-7.5s-3.357-7.5-7.5-7.5h-280.597v-84.684c0-4.136 3.364-7.5 7.5-7.5h467c4.136 0 7.5 3.364 7.5 7.5v84.684h-168.717c-4.143 0-7.5 3.358-7.5 7.5s3.357 7.5 7.5 7.5h168.717v350.104c0 4.136-3.364 7.5-7.5 7.5h-467c-4.136 0-7.5-3.364-7.5-7.5v-125.83c0-4.142-3.357-7.5-7.5-7.5s-7.5 3.358-7.5 7.5v125.831c0 12.407 10.094 22.5 22.5 22.5h467c12.406 0 22.5-10.093 22.5-22.5v-449.789c0-12.407-10.094-22.5-22.5-22.5z" fill="#ffffff" data-original="#000000" style="" class=""/><path d="m248.5 406.528v9.255c0 4.142 3.357 7.5 7.5 7.5s7.5-3.358 7.5-7.5v-8.755c12.438-2.114 22.564-11.019 24.588-22.354 1.763-9.874-2.826-22.813-20.993-29.514-9.779-3.607-18.858-7.543-21.27-8.603-2.22-1.658-3.293-4.284-2.886-7.123.524-3.656 3.361-6.599 7.588-7.873 11.965-3.606 22.845 5.081 23.087 5.277 3.171 2.638 7.88 2.22 10.537-.941 2.665-3.171 2.255-7.902-.915-10.567-.474-.398-8.378-6.917-19.735-9.015v-8.915c0-4.142-3.357-7.5-7.5-7.5s-7.5 3.358-7.5 7.5v9.197c-.762.176-1.527.369-2.3.602-9.814 2.957-16.754 10.66-18.109 20.104-1.265 8.81 2.552 17.283 9.96 22.113.331.216.679.405 1.04.567.442.197 10.962 4.879 22.812 9.251 8.171 3.014 12.333 7.681 11.418 12.804-.919 5.147-6.966 10.471-15.494 10.471-8.221 0-16.152-3.337-21.218-8.926-2.782-3.07-7.525-3.301-10.594-.521-3.069 2.781-3.303 7.524-.521 10.594 5.861 6.468 14.073 10.989 23.005 12.872z" fill="#ffffff" data-original="#000000" style="" class=""/><path d="m107.408 271.356c-4.854 0-8.803-3.949-8.803-8.803 0-4.853 3.949-8.802 8.803-8.802h229.66c4.143 0 7.5-3.358 7.5-7.5s-3.357-7.5-7.5-7.5h-6.691l-23.416-64.112c-4.255-11.651-17.196-17.668-28.854-13.416-11.653 4.257-17.671 17.2-13.415 28.854l17.778 48.674h-52.938l17.778-48.674c4.256-11.653-1.762-24.597-13.417-28.854-11.655-4.253-24.598 1.766-28.853 13.416l-23.417 64.112h-74.214c-13.125 0-23.803 10.678-23.803 23.803 0 13.124 10.678 23.802 23.803 23.802h11.413l16.544 136.87c1.971 16.305 15.841 28.6 32.265 28.6h176.74c16.424 0 30.294-12.295 32.265-28.6l16.544-136.87h11.413c13.125 0 23.803-10.678 23.803-23.803 0-13.124-10.678-23.802-23.803-23.802h-34.836c-4.143 0-7.5 3.358-7.5 7.5s3.357 7.5 7.5 7.5h34.836c4.854 0 8.803 3.949 8.803 8.803 0 4.853-3.949 8.802-8.803 8.802zm254.335 150.07c-1.061 8.779-8.529 15.4-17.373 15.4h-176.74c-8.844 0-16.313-6.621-17.373-15.4l-16.327-135.07h244.141zm-82.962-236.495c-1.419-3.885.587-8.2 4.47-9.618 3.888-1.42 8.202.588 9.62 4.472l21.537 58.966h-15.969zm-45.562 0-19.657 53.82h-15.97l21.537-58.966c1.418-3.884 5.734-5.89 9.618-4.472 3.885 1.418 5.891 5.733 4.472 9.618z" fill="#ffffff" data-original="#000000" style="" class=""/></g></g></svg>
