<svg width="55" height="27" viewBox="0 0 55 27" fill="none" xmlns="http://www.w3.org/2000/svg">
<g filter="url(#filter0_d)">
<path d="M1.52 8.23V7.918L7.24 5.227V5.617L2.014 8.074L7.24 10.531V10.921L1.52 8.23ZM7.37791 12.078C7.29991 12.078 7.22191 12.052 7.14391 12L10.1989 3.277C10.2596 3.11233 10.3246 2.99533 10.3939 2.926C10.4632 2.85667 10.5499 2.822 10.6539 2.822C10.7232 2.822 10.7882 2.835 10.8489 2.861L13.9039 11.597C13.9299 11.675 13.9429 11.7443 13.9429 11.805C13.9429 11.987 13.8216 12.078 13.5789 12.078L12.5129 9.049H8.67791L7.74191 11.701C7.65524 11.9523 7.53391 12.078 7.37791 12.078ZM12.3699 8.633L10.5889 3.563L8.82091 8.633H12.3699ZM14.516 12.052C14.464 12.052 14.4077 12.0347 14.347 12V5.773C14.347 5.46967 14.451 5.318 14.659 5.318C14.711 5.318 14.7673 5.33533 14.828 5.37V6.696C15.01 6.26267 15.283 5.91167 15.647 5.643C16.011 5.37433 16.4443 5.24 16.947 5.24C17.6143 5.24 18.143 5.45667 18.533 5.89C18.9317 6.32333 19.131 6.90833 19.131 7.645V11.597C19.131 11.9003 19.027 12.052 18.819 12.052C18.767 12.052 18.7107 12.0347 18.65 12V7.645C18.65 7.02967 18.494 6.54433 18.182 6.189C17.8787 5.825 17.467 5.643 16.947 5.643C16.5223 5.643 16.1497 5.76867 15.829 6.02C15.5083 6.26267 15.2613 6.605 15.088 7.047C14.9147 7.489 14.828 8.00033 14.828 8.581V11.597C14.828 11.9003 14.724 12.052 14.516 12.052ZM25.226 5.773C25.0786 6.05033 24.9746 6.32333 24.914 6.592C24.862 6.86067 24.836 7.268 24.836 7.814V11.298C24.836 12.0953 24.6063 12.7367 24.147 13.222C23.6876 13.7073 23.0636 13.95 22.275 13.95C21.8416 13.95 21.443 13.8807 21.079 13.742C20.7236 13.6033 20.442 13.443 20.234 13.261C20.026 13.079 19.922 12.936 19.922 12.832C19.922 12.676 20.0086 12.598 20.182 12.598C20.494 12.9273 20.8146 13.17 21.144 13.326C21.482 13.482 21.859 13.56 22.275 13.56C22.9596 13.56 23.4753 13.3607 23.822 12.962C24.1773 12.5633 24.355 12.0087 24.355 11.298V10.232C24.1036 10.6653 23.783 11.0033 23.393 11.246C23.003 11.4887 22.5566 11.61 22.054 11.61C21.534 11.61 21.079 11.4843 20.689 11.233C20.3076 10.9817 20.0086 10.6307 19.792 10.18C19.584 9.72067 19.48 9.192 19.48 8.594C19.48 7.95267 19.597 7.38067 19.831 6.878C20.065 6.36667 20.4073 5.968 20.858 5.682C21.3173 5.38733 21.8633 5.24 22.496 5.24C22.7126 5.24 22.9163 5.25733 23.107 5.292C23.2976 5.318 23.5403 5.36133 23.835 5.422C24.1123 5.48267 24.3463 5.53033 24.537 5.565C24.7276 5.591 24.9313 5.604 25.148 5.604L25.226 5.773ZM24.355 7.814C24.355 7.424 24.3766 7.08167 24.42 6.787C24.4633 6.49233 24.5413 6.228 24.654 5.994C24.446 5.98533 24.2293 5.955 24.004 5.903C23.7786 5.851 23.64 5.82067 23.588 5.812C23.3193 5.75133 23.094 5.708 22.912 5.682C22.73 5.64733 22.5436 5.63 22.353 5.63C21.599 5.63 21.014 5.90733 20.598 6.462C20.182 7.01667 19.974 7.72733 19.974 8.594C19.974 9.38267 20.156 10.0197 20.52 10.505C20.8926 10.9817 21.404 11.22 22.054 11.22C22.496 11.22 22.8903 11.1073 23.237 10.882C23.5923 10.648 23.8653 10.3317 24.056 9.933C24.2553 9.52567 24.355 9.06633 24.355 8.555V7.814ZM28.3487 12.13C27.7594 12.13 27.248 11.9913 26.8147 11.714C26.3814 11.4367 26.0434 11.038 25.8007 10.518C25.5667 9.998 25.4497 9.38267 25.4497 8.672C25.4497 7.97867 25.5624 7.37633 25.7877 6.865C26.013 6.345 26.3337 5.94633 26.7497 5.669C27.1657 5.383 27.6554 5.24 28.2187 5.24C29.0334 5.24 29.6704 5.526 30.1297 6.098C30.5977 6.66133 30.8317 7.41533 30.8317 8.36C30.8317 8.542 30.8144 8.68933 30.7797 8.802H25.9437C25.961 9.70333 26.182 10.4183 26.6067 10.947C27.0314 11.4757 27.612 11.74 28.3487 11.74C29.1114 11.74 29.7874 11.454 30.3767 10.882C30.4634 10.882 30.5284 10.9037 30.5717 10.947C30.615 10.9817 30.6367 11.025 30.6367 11.077C30.6367 11.1897 30.5327 11.3327 30.3247 11.506C30.1167 11.6707 29.8394 11.818 29.4927 11.948C29.146 12.0693 28.7647 12.13 28.3487 12.13ZM30.3377 8.36C30.303 7.51067 30.1037 6.84333 29.7397 6.358C29.3757 5.87267 28.86 5.63 28.1927 5.63C27.4994 5.63 26.9534 5.88567 26.5547 6.397C26.1647 6.90833 25.961 7.58867 25.9437 8.438L30.3377 8.36ZM31.5371 12.052C31.4851 12.052 31.4288 12.0347 31.3681 12V3.043C31.3681 2.73967 31.4721 2.588 31.6801 2.588C31.7321 2.588 31.7885 2.60533 31.8491 2.64V11.597C31.8491 11.9003 31.7451 12.052 31.5371 12.052ZM33.1666 4.057C33.0626 4.057 32.9759 4.02667 32.9066 3.966C32.8459 3.89667 32.8156 3.81 32.8156 3.706C32.8156 3.602 32.8459 3.51967 32.9066 3.459C32.9759 3.38967 33.0626 3.355 33.1666 3.355C33.2706 3.355 33.3572 3.38967 33.4266 3.459C33.4959 3.51967 33.5306 3.602 33.5306 3.706C33.5306 3.81 33.4959 3.89667 33.4266 3.966C33.3572 4.02667 33.2706 4.057 33.1666 4.057ZM33.1016 12.052C33.0496 12.052 32.9932 12.0347 32.9326 12V5.773C32.9326 5.46967 33.0366 5.318 33.2446 5.318C33.2966 5.318 33.3529 5.33533 33.4136 5.37V11.597C33.4136 11.9003 33.3096 12.052 33.1016 12.052ZM36.85 12.13C36.2867 12.13 35.7884 11.9913 35.355 11.714C34.9217 11.428 34.5837 11.025 34.341 10.505C34.0984 9.985 33.977 9.37833 33.977 8.685C33.977 7.99167 34.0984 7.385 34.341 6.865C34.5837 6.345 34.9217 5.94633 35.355 5.669C35.7884 5.383 36.2867 5.24 36.85 5.24C37.2314 5.24 37.591 5.30067 37.929 5.422C38.267 5.54333 38.54 5.68633 38.748 5.851C38.956 6.007 39.06 6.13267 39.06 6.228C39.06 6.384 38.9734 6.462 38.8 6.462C38.2367 5.90733 37.5867 5.63 36.85 5.63C36.1047 5.63 35.5197 5.903 35.095 6.449C34.679 6.995 34.471 7.74033 34.471 8.685C34.471 9.62967 34.679 10.375 35.095 10.921C35.5197 11.467 36.1047 11.74 36.85 11.74C37.5867 11.74 38.2367 11.4627 38.8 10.908C38.9734 10.908 39.06 10.986 39.06 11.142C39.06 11.2373 38.956 11.3673 38.748 11.532C38.54 11.688 38.267 11.8267 37.929 11.948C37.591 12.0693 37.2314 12.13 36.85 12.13ZM41.2412 12.13C40.6258 12.13 40.1362 11.948 39.7722 11.584C39.4082 11.22 39.2262 10.7303 39.2262 10.115C39.2262 9.48233 39.4298 8.984 39.8372 8.62C40.2532 8.24733 40.8078 8.061 41.5012 8.061C41.8998 8.061 42.2552 8.11733 42.5672 8.23C42.8792 8.34267 43.1305 8.49867 43.3212 8.698V7.71C43.3212 7.07733 43.1522 6.57467 42.8142 6.202C42.4848 5.82067 42.0385 5.63 41.4752 5.63C40.8165 5.63 40.2228 5.90733 39.6942 6.462C39.5208 6.462 39.4342 6.384 39.4342 6.228C39.4342 6.13267 39.5295 6.007 39.7202 5.851C39.9195 5.68633 40.1795 5.54333 40.5002 5.422C40.8208 5.30067 41.1632 5.24 41.5272 5.24C42.2118 5.24 42.7622 5.46533 43.1782 5.916C43.5942 6.36667 43.8022 6.96467 43.8022 7.71V11.597C43.8022 11.9003 43.6982 12.052 43.4902 12.052C43.4382 12.052 43.3818 12.0347 43.3212 12V11.168C43.0785 11.4627 42.7752 11.6967 42.4112 11.87C42.0472 12.0433 41.6572 12.13 41.2412 12.13ZM41.1892 11.74C41.5358 11.74 41.8738 11.6707 42.2032 11.532C42.5325 11.3847 42.8012 11.181 43.0092 10.921C43.2172 10.661 43.3212 10.362 43.3212 10.024V9.595C43.3212 9.22233 43.1348 8.94067 42.7622 8.75C42.3982 8.55067 41.9562 8.451 41.4362 8.451C40.9075 8.451 40.4872 8.60267 40.1752 8.906C39.8718 9.20933 39.7202 9.61667 39.7202 10.128C39.7202 10.622 39.8502 11.0163 40.1102 11.311C40.3788 11.597 40.7385 11.74 41.1892 11.74Z" fill="black"/>
<path d="M12.887 23.078C12.809 23.078 12.731 23.052 12.653 23L15.708 14.277C15.7687 14.1123 15.8337 13.9953 15.903 13.926C15.9723 13.8567 16.059 13.822 16.163 13.822C16.2323 13.822 16.2973 13.835 16.358 13.861L19.413 22.597C19.439 22.675 19.452 22.7443 19.452 22.805C19.452 22.987 19.3307 23.078 19.088 23.078L18.022 20.049H14.187L13.251 22.701C13.1643 22.9523 13.043 23.078 12.887 23.078ZM17.879 19.633L16.098 14.563L14.33 19.633H17.879ZM24.5876 16.773C24.4402 17.0503 24.3362 17.3233 24.2756 17.592C24.2236 17.8607 24.1976 18.268 24.1976 18.814V22.298C24.1976 23.0953 23.9679 23.7367 23.5086 24.222C23.0492 24.7073 22.4252 24.95 21.6366 24.95C21.2032 24.95 20.8046 24.8807 20.4406 24.742C20.0852 24.6033 19.8036 24.443 19.5956 24.261C19.3876 24.079 19.2836 23.936 19.2836 23.832C19.2836 23.676 19.3702 23.598 19.5436 23.598C19.8556 23.9273 20.1762 24.17 20.5056 24.326C20.8436 24.482 21.2206 24.56 21.6366 24.56C22.3212 24.56 22.8369 24.3607 23.1836 23.962C23.5389 23.5633 23.7166 23.0087 23.7166 22.298V21.232C23.4652 21.6653 23.1446 22.0033 22.7546 22.246C22.3646 22.4887 21.9182 22.61 21.4156 22.61C20.8956 22.61 20.4406 22.4843 20.0506 22.233C19.6692 21.9817 19.3702 21.6307 19.1536 21.18C18.9456 20.7207 18.8416 20.192 18.8416 19.594C18.8416 18.9527 18.9586 18.3807 19.1926 17.878C19.4266 17.3667 19.7689 16.968 20.2196 16.682C20.6789 16.3873 21.2249 16.24 21.8576 16.24C22.0742 16.24 22.2779 16.2573 22.4686 16.292C22.6592 16.318 22.9019 16.3613 23.1966 16.422C23.4739 16.4827 23.7079 16.5303 23.8986 16.565C24.0892 16.591 24.2929 16.604 24.5096 16.604L24.5876 16.773ZM23.7166 18.814C23.7166 18.424 23.7382 18.0817 23.7816 17.787C23.8249 17.4923 23.9029 17.228 24.0156 16.994C23.8076 16.9853 23.5909 16.955 23.3656 16.903C23.1402 16.851 23.0016 16.8207 22.9496 16.812C22.6809 16.7513 22.4556 16.708 22.2736 16.682C22.0916 16.6473 21.9052 16.63 21.7146 16.63C20.9606 16.63 20.3756 16.9073 19.9596 17.462C19.5436 18.0167 19.3356 18.7273 19.3356 19.594C19.3356 20.3827 19.5176 21.0197 19.8816 21.505C20.2542 21.9817 20.7656 22.22 21.4156 22.22C21.8576 22.22 22.2519 22.1073 22.5986 21.882C22.9539 21.648 23.2269 21.3317 23.4176 20.933C23.6169 20.5257 23.7166 20.0663 23.7166 19.555V18.814ZM27.2813 23.13C26.6226 23.13 26.0983 22.9177 25.7083 22.493C25.3183 22.0597 25.1233 21.479 25.1233 20.751V16.773C25.1233 16.4697 25.2273 16.318 25.4353 16.318C25.4873 16.318 25.5436 16.3353 25.6043 16.37V20.751C25.6043 21.3577 25.756 21.8387 26.0593 22.194C26.3626 22.5493 26.77 22.727 27.2813 22.727C27.6973 22.727 28.0613 22.6057 28.3733 22.363C28.694 22.1117 28.941 21.765 29.1143 21.323C29.2876 20.881 29.3743 20.3697 29.3743 19.789V16.773C29.3743 16.4697 29.4783 16.318 29.6863 16.318C29.7383 16.318 29.7946 16.3353 29.8553 16.37V22.597C29.8553 22.9003 29.7513 23.052 29.5433 23.052C29.4913 23.052 29.435 23.0347 29.3743 23V21.674C29.1923 22.1073 28.9193 22.4583 28.5553 22.727C28.2 22.9957 27.7753 23.13 27.2813 23.13ZM31.1415 15.057C31.0375 15.057 30.9508 15.0267 30.8815 14.966C30.8208 14.8967 30.7905 14.81 30.7905 14.706C30.7905 14.602 30.8208 14.5197 30.8815 14.459C30.9508 14.3897 31.0375 14.355 31.1415 14.355C31.2455 14.355 31.3321 14.3897 31.4015 14.459C31.4708 14.5197 31.5055 14.602 31.5055 14.706C31.5055 14.81 31.4708 14.8967 31.4015 14.966C31.3321 15.0267 31.2455 15.057 31.1415 15.057ZM31.0765 23.052C31.0245 23.052 30.9681 23.0347 30.9075 23V16.773C30.9075 16.4697 31.0115 16.318 31.2195 16.318C31.2715 16.318 31.3278 16.3353 31.3885 16.37V22.597C31.3885 22.9003 31.2845 23.052 31.0765 23.052ZM32.6409 23.052C32.5889 23.052 32.5326 23.0347 32.4719 23V14.043C32.4719 13.7397 32.5759 13.588 32.7839 13.588C32.8359 13.588 32.8923 13.6053 32.9529 13.64V22.597C32.9529 22.9003 32.8489 23.052 32.6409 23.052ZM35.6614 23.13C35.0461 23.13 34.5564 22.948 34.1924 22.584C33.8284 22.22 33.6464 21.7303 33.6464 21.115C33.6464 20.4823 33.8501 19.984 34.2574 19.62C34.6734 19.2473 35.2281 19.061 35.9214 19.061C36.3201 19.061 36.6754 19.1173 36.9874 19.23C37.2994 19.3427 37.5507 19.4987 37.7414 19.698V18.71C37.7414 18.0773 37.5724 17.5747 37.2344 17.202C36.9051 16.8207 36.4587 16.63 35.8954 16.63C35.2367 16.63 34.6431 16.9073 34.1144 17.462C33.9411 17.462 33.8544 17.384 33.8544 17.228C33.8544 17.1327 33.9497 17.007 34.1404 16.851C34.3397 16.6863 34.5997 16.5433 34.9204 16.422C35.2411 16.3007 35.5834 16.24 35.9474 16.24C36.6321 16.24 37.1824 16.4653 37.5984 16.916C38.0144 17.3667 38.2224 17.9647 38.2224 18.71V22.597C38.2224 22.9003 38.1184 23.052 37.9104 23.052C37.8584 23.052 37.8021 23.0347 37.7414 23V22.168C37.4987 22.4627 37.1954 22.6967 36.8314 22.87C36.4674 23.0433 36.0774 23.13 35.6614 23.13ZM35.6094 22.74C35.9561 22.74 36.2941 22.6707 36.6234 22.532C36.9527 22.3847 37.2214 22.181 37.4294 21.921C37.6374 21.661 37.7414 21.362 37.7414 21.024V20.595C37.7414 20.2223 37.5551 19.9407 37.1824 19.75C36.8184 19.5507 36.3764 19.451 35.8564 19.451C35.3277 19.451 34.9074 19.6027 34.5954 19.906C34.2921 20.2093 34.1404 20.6167 34.1404 21.128C34.1404 21.622 34.2704 22.0163 34.5304 22.311C34.7991 22.597 35.1587 22.74 35.6094 22.74ZM39.235 23.052C39.183 23.052 39.1267 23.0347 39.066 23V16.773C39.066 16.4697 39.17 16.318 39.378 16.318C39.43 16.318 39.4864 16.3353 39.547 16.37V17.514C39.6944 17.124 39.898 16.8163 40.158 16.591C40.418 16.357 40.717 16.24 41.055 16.24C41.211 16.24 41.3454 16.266 41.458 16.318C41.5707 16.3613 41.627 16.4307 41.627 16.526C41.627 16.578 41.6097 16.6213 41.575 16.656C41.549 16.682 41.5144 16.695 41.471 16.695C41.3324 16.6603 41.1937 16.643 41.055 16.643C40.7777 16.643 40.522 16.7557 40.288 16.981C40.0627 17.2063 39.8807 17.5183 39.742 17.917C39.612 18.307 39.547 18.7533 39.547 19.256V22.597C39.547 22.9003 39.443 23.052 39.235 23.052ZM45.6162 13.25H46.1362L41.6382 25.08H41.1182L45.6162 13.25ZM45.9666 21.531L51.1926 19.074L45.9666 16.617V16.227L51.6866 18.918V19.23L45.9666 21.921V21.531Z" fill="black"/>
</g>
<defs>
<filter id="filter0_d" x="0.52" y="1.588" width="52.1666" height="24.492" filterUnits="userSpaceOnUse" color-interpolation-filters="sRGB">
<feFlood flood-opacity="0" result="BackgroundImageFix"/>
<feColorMatrix in="SourceAlpha" type="matrix" values="0 0 0 0 0 0 0 0 0 0 0 0 0 0 0 0 0 0 127 0"/>
<feOffset/>
<feGaussianBlur stdDeviation="0.5"/>
<feColorMatrix type="matrix" values="0 0 0 0 0 0 0 0 0 0 0 0 0 0 0 0 0 0 1 0"/>
<feBlend mode="normal" in2="BackgroundImageFix" result="effect1_dropShadow"/>
<feBlend mode="normal" in="SourceGraphic" in2="effect1_dropShadow" result="shape"/>
</filter>
</defs>
</svg>
